Jump_normalized_precision_landing03_filtered_grf
version=1
nRows=25
nColumns=37
inDegrees=yes
endheader
time		1_ground_force_vx		1_ground_force_vy		1_ground_force_vz		1_ground_force_px		1_ground_force_py		1_ground_force_pz		1_ground_torque_x		1_ground_torque_y		1_ground_torque_z		2_ground_force_vx		2_ground_force_vy		2_ground_force_vz		2_ground_force_px		2_ground_force_py		2_ground_force_pz		2_ground_torque_x		2_ground_torque_y		2_ground_torque_z		3_ground_force_vx		3_ground_force_vy		3_ground_force_vz		3_ground_force_px		3_ground_force_py		3_ground_force_pz		3_ground_torque_x		3_ground_torque_y		3_ground_torque_z		4_ground_force_vx		4_ground_force_vy		4_ground_force_vz		4_ground_force_px		4_ground_force_py		4_ground_force_pz		4_ground_torque_x		4_ground_torque_y		4_ground_torque_z		
0.517000		0.000000		-0.000000		-0.000000		0.145274		0.000000		0.289941		-0.000000		-0.000000		0.000000		-0.000000		-0.000000		-0.000000		-0.178967		0.000000		0.303654		-0.000000		0.000000		-0.000000		-10.511976		363.715099		-138.998598		0.380977		1.274598		1.889949		0.370273		-12.811484		4.896080		-55.317647		372.706884		-77.127213		-0.351369		1.267814		1.878051		-3.659152		24.653820		-5.101812		
0.520258		-0.000000		0.000000		0.000000		0.145274		0.000000		0.289941		0.000000		0.000000		-0.000000		0.000000		0.000000		-0.000000		-0.178967		0.000000		0.303654		-0.000000		-0.000000		0.000000		-7.902193		345.754305		-138.627418		0.380948		1.274641		1.889944		0.275075		-12.035467		4.825507		-58.415512		353.387840		-74.778945		-0.351351		1.267851		1.878049		-3.861726		23.361749		-4.943482		
0.523515		-0.000000		0.000000		0.000000		0.145274		0.000000		0.289941		0.000000		0.000000		-0.000000		0.000000		0.000000		0.000000		-0.178967		0.000000		0.303654		0.000000		-0.000000		0.000000		-5.486233		326.387282		-137.059070		0.380920		1.274684		1.889934		0.188385		-11.207368		4.706282		-60.969677		332.279239		-72.254232		-0.351349		1.267882		1.878036		-4.021028		21.914243		-4.765259		
0.526773		-0.000000		0.000000		0.000000		0.145274		0.000000		0.289941		0.000000		0.000000		-0.000000		0.000000		0.000000		0.000000		-0.178967		0.000000		0.303654		0.000000		-0.000000		0.000000		-3.176465		305.573770		-134.079307		0.380892		1.274727		1.889909		0.107416		-10.332732		4.533766		-62.786489		309.347432		-69.379949		-0.351353		1.267908		1.878001		-4.125675		20.327145		-4.558936		
0.530030		-0.000000		0.000000		0.000000		0.145274		0.000000		0.289941		0.000000		0.000000		-0.000000		0.000000		0.000000		0.000000		-0.178967		0.000000		0.303654		0.000000		-0.000000		0.000000		-0.907147		283.291521		-129.550350		0.380868		1.274766		1.889856		0.030151		-9.415186		4.305598		-63.620472		284.732231		-65.951678		-0.351355		1.267929		1.877934		-4.162140		18.627591		-4.314653		
0.533288		-0.000000		0.000000		0.000000		0.145274		0.000000		0.289941		0.000000		0.000000		-0.000000		0.000000		0.000000		0.000000		-0.178967		0.000000		0.303654		0.000000		-0.000000		0.000000		1.347812		259.533398		-123.356288		0.380849		1.274795		1.889753		-0.043909		-8.456882		4.019540		-63.219642		258.655515		-61.790488		-0.351345		1.267951		1.877816		-4.116305		16.841403		-4.023257		
0.536545		0.000000		-0.000000		-0.000000		0.145274		0.000000		0.289941		-0.000000		-0.000000		0.000000		-0.000000		-0.000000		0.000000		-0.178967		0.000000		0.303654		-0.000000		0.000000		-0.000000		3.588733		234.424321		-115.461230		0.380835		1.274813		1.889601		1.142109		-20.922508		-23.610044		-61.404890		231.472438		-56.799909		-0.351324		1.267977		1.877647		-3.977868		14.995021		-3.679556		
0.539803		0.000000		-0.000000		-0.000000		0.145274		0.000000		0.289941		-0.000000		-0.000000		0.000000		-0.000000		-0.000000		-0.000000		-0.178967		0.000000		0.303654		-0.000000		0.000000		-0.000000		5.787453		208.214262		-105.878066		0.380823		1.274825		1.889400		1.040758		-18.778756		-20.902320		-58.096768		203.617122		-50.977820		-0.351292		1.268015		1.877435		-3.742075		13.115227		-3.283542		
0.543061		0.000000		-0.000000		-0.000000		0.145274		0.000000		0.289941		-0.000000		-0.000000		0.000000		-0.000000		-0.000000		-0.000000		-0.178967		0.000000		0.303654		-0.000000		0.000000		-0.000000		7.900933		181.333609		-94.734911		0.380804		1.274837		1.889157		0.948698		-16.467189		-18.189605		-53.403058		175.629711		-44.432824		-0.351259		1.268067		1.877186		-3.416274		11.235308		-2.842437		
0.546318		0.000000		-0.000000		-0.000000		0.145274		0.000000		0.289941		-0.000000		-0.000000		0.000000		-0.000000		-0.000000		-0.000000		-0.178967		0.000000		0.303654		-0.000000		0.000000		-0.000000		9.872079		154.336587		-82.266399		0.380774		1.274865		1.888895		0.863845		-14.041970		-15.522185		-47.567271		148.139584		-37.342999		-0.351234		1.268132		1.876922		-3.017456		9.397340		-2.368881		
0.549576		0.000000		-0.000000		-0.000000		0.145274		0.000000		0.289941		-0.000000		-0.000000		0.000000		-0.000000		-0.000000		-0.000000		-0.178967		0.000000		0.303654		-0.000000		0.000000		-0.000000		11.628733		127.850908		-68.891608		0.380731		1.274915		1.888628		-0.316986		-3.485287		1.878023		-40.993010		121.821714		-29.959834		-0.351227		1.268202		1.876655		-2.573858		7.648918		-1.881114		
0.552833		-0.000000		0.000000		0.000000		0.145274		0.000000		0.289941		0.000000		0.000000		-0.000000		0.000000		0.000000		-0.000000		-0.178967		0.000000		0.303654		-0.000000		-0.000000		0.000000		13.077821		102.509815		-55.209280		0.380679		1.274995		1.888360		-0.331893		-2.601913		1.401331		-34.152378		97.350922		-22.579348		-0.351240		1.268267		1.876390		10.932653		12.056951		4.813390		
0.556091		-0.000000		0.000000		0.000000		0.145274		0.000000		0.289941		0.000000		0.000000		-0.000000		0.000000		0.000000		0.000000		-0.178967		0.000000		0.303654		0.000000		-0.000000		0.000000		14.116742		78.888019		-41.977191		0.380632		1.275095		1.888085		-0.321776		-1.798465		0.956991		-27.519102		75.289098		-15.531208		-0.351271		1.268318		1.876119		8.601264		9.298530		3.618966		
0.559348		-0.000000		0.000000		0.000000		0.145274		0.000000		0.289941		0.000000		0.000000		-0.000000		0.000000		0.000000		0.000000		-0.178967		0.000000		0.303654		0.000000		-0.000000		0.000000		14.651839		57.513868		-30.006698		0.380605		1.275203		1.887794		-0.277041		-1.087993		0.567654		-21.496836		56.041671		-9.146347		-0.351313		1.268351		1.875835		6.542569		6.867666		2.609155		
0.562606		-0.000000		0.000000		0.000000		0.145274		0.000000		0.289941		0.000000		0.000000		-0.000000		0.000000		0.000000		0.000000		-0.178967		0.000000		0.303654		0.000000		-0.000000		0.000000		14.648925		38.870089		-19.988706		0.380613		1.275305		1.887477		-0.184299		-0.489559		0.251753		-16.355057		39.792649		-3.716743		-0.351358		1.268363		1.875525		4.766040		4.824145		1.787097		
0.565864		-0.000000		0.000000		0.000000		0.145274		0.000000		0.289941		0.000000		0.000000		-0.000000		0.000000		0.000000		0.000000		-0.178967		0.000000		0.303654		0.000000		-0.000000		0.000000		14.157777		23.418694		-12.349672		0.380672		1.275386		1.887125		-0.026763		-0.045060		0.023712		-12.211601		26.556766		0.537154		-0.351401		1.268358		1.875186		-0.647411		1.408054		0.028362		
0.569121		0.000000		-0.000000		-0.000000		0.145274		0.000000		0.289941		-0.000000		-0.000000		0.000000		-0.000000		-0.000000		0.000000		-0.178967		0.000000		0.303654		-0.000000		0.000000		-0.000000		13.311579		11.503808		-7.153828		0.380770		1.275447		1.886757		0.177274		0.152636		-0.095057		-9.040111		16.210724		3.525598		-0.351436		1.268345		1.874831		-0.384981		0.690623		0.149912		
0.572379		0.000000		-0.000000		-0.000000		0.145274		0.000000		0.289941		-0.000000		-0.000000		0.000000		-0.000000		-0.000000		-0.000000		-0.178967		0.000000		0.303654		-0.000000		0.000000		-0.000000		12.295078		3.233648		-4.138459		0.380888		1.275491		1.886388		0.229497		0.060537		-0.077298		-6.722668		8.562060		5.305472		-0.351455		1.268331		1.874476		-0.140751		0.179728		0.110747		
0.575636		0.000000		-0.000000		-0.000000		0.145274		0.000000		0.289941		-0.000000		-0.000000		0.000000		-0.000000		-0.000000		-0.000000		-0.178967		0.000000		0.303654		-0.000000		0.000000		-0.000000		11.302090		-1.651521		-2.826943		0.381002		1.275521		1.886045		0.031871		-0.004371		-0.008003		-5.107109		3.353320		6.082480		-0.351449		1.268318		1.874142		0.024794		-0.016025		-0.029682		
0.578894		0.000000		-0.000000		-0.000000		0.145274		0.000000		0.289941		-0.000000		-0.000000		0.000000		-0.000000		-0.000000		-0.000000		-0.178967		0.000000		0.303654		-0.000000		0.000000		-0.000000		10.492539		-3.787921		-2.676542		0.381088		1.275548		1.885746		-0.110850		0.040063		0.028290		-4.049788		0.239540		6.164593		-0.351415		1.268301		1.873836		0.040111		-0.002416		-0.061034		
0.582152		0.000000		-0.000000		-0.000000		0.145274		0.000000		0.289941		-0.000000		-0.000000		0.000000		-0.000000		-0.000000		-0.000000		-0.178967		0.000000		0.303654		-0.000000		0.000000		-0.000000		9.960976		-4.048222		-3.195908		0.381137		1.275574		1.885498		-0.138555		0.056311		0.044451		-3.424484		-1.225794		5.891779		-0.351356		1.268274		1.873556		0.005816		0.002046		-0.009992		
0.585409		-0.000000		0.000000		0.000000		0.145274		0.000000		0.289941		0.000000		0.000000		-0.000000		0.000000		0.000000		-0.000000		-0.178967		0.000000		0.303654		0.000000		-0.000000		0.000000		9.725157		-3.330442		-4.003202		0.381151		1.275601		1.885305		-0.104188		0.035696		0.042872		-3.109758		-1.568874		5.563641		-0.351273		1.268235		1.873295		-0.010275		-0.005184		0.018384		
0.588667		-0.000000		0.000000		0.000000		0.145274		0.000000		0.289941		0.000000		0.000000		-0.000000		0.000000		0.000000		0.000000		-0.178967		0.000000		0.303654		0.000000		-0.000000		0.000000		9.744912		-2.348691		-4.836822		0.381148		1.275627		1.885152		-0.049365		0.011926		0.024481		-2.992678		-1.305501		5.380860		-0.351177		1.268189		1.873040		-0.006760		-0.002956		0.012154		
0.591924		-0.000000		0.000000		0.000000		0.145274		0.000000		0.289941		0.000000		0.000000		-0.000000		0.000000		0.000000		0.000000		-0.178967		0.000000		0.303654		0.000000		-0.000000		0.000000		9.948547		-1.534583		-5.533780		0.381142		1.275650		1.885019		-0.004419		0.000689		0.002453		-2.980508		-0.856832		5.416403		-0.351078		1.268148		1.872784		0.005078		0.001454		-0.009228		
0.595182		-0.000000		0.000000		0.000000		0.145274		0.000000		0.289941		0.000000		0.000000		-0.000000		0.000000		0.000000		0.000000		-0.178967		0.000000		0.303654		0.000000		-0.000000		0.000000		10.260351		-1.047239		-6.000615		0.381142		1.275669		1.884890		0.017526		-0.001787		-0.010251		-3.016238		-0.486370		5.627548		-0.350985		1.268124		1.872529		0.015100		0.002431		-0.028174		
